<mxfile host="app.diagrams.net" agent="Mozilla/5.0 (Macintosh; Intel Mac OS X 10_15_7) AppleWebKit/537.36 (KHTML, like Gecko) Chrome/136.0.0.0 Safari/537.36" version="27.1.4">
  <diagram name="Page-1" id="Jy6gdphpi6IADfZuBbNj">
    <mxGraphModel dx="925" dy="546" grid="1" gridSize="10" guides="1" tooltips="1" connect="1" arrows="1" fold="1" page="1" pageScale="1" pageWidth="827" pageHeight="1169" math="0" shadow="0">
      <root>
        <mxCell id="0" />
        <mxCell id="1" parent="0" />
        <mxCell id="sandKhznGmmFXWI2i4uB-1" value="AWS Cloud" style="points=[[0,0],[0.25,0],[0.5,0],[0.75,0],[1,0],[1,0.25],[1,0.5],[1,0.75],[1,1],[0.75,1],[0.5,1],[0.25,1],[0,1],[0,0.75],[0,0.5],[0,0.25]];outlineConnect=0;gradientColor=none;html=1;whiteSpace=wrap;fontSize=12;fontStyle=0;container=1;pointerEvents=0;collapsible=0;recursiveResize=0;shape=mxgraph.aws4.group;grIcon=mxgraph.aws4.group_aws_cloud_alt;strokeColor=#232F3E;fillColor=none;verticalAlign=top;align=left;spacingLeft=30;fontColor=#232F3E;dashed=0;" vertex="1" parent="1">
          <mxGeometry x="154" y="90" width="586" height="260" as="geometry" />
        </mxCell>
        <mxCell id="sandKhznGmmFXWI2i4uB-18" value="" style="whiteSpace=wrap;html=1;fillColor=none;strokeWidth=2;" vertex="1" parent="sandKhznGmmFXWI2i4uB-1">
          <mxGeometry x="326" y="50" width="224" height="160" as="geometry" />
        </mxCell>
        <mxCell id="sandKhznGmmFXWI2i4uB-9" style="edgeStyle=orthogonalEdgeStyle;rounded=0;orthogonalLoop=1;jettySize=auto;html=1;strokeWidth=2;" edge="1" parent="sandKhznGmmFXWI2i4uB-1" source="sandKhznGmmFXWI2i4uB-3" target="sandKhznGmmFXWI2i4uB-4">
          <mxGeometry relative="1" as="geometry" />
        </mxCell>
        <mxCell id="sandKhznGmmFXWI2i4uB-3" value="&lt;font style=&quot;font-size: 14px;&quot;&gt;API Gateway&lt;/font&gt;" style="sketch=0;points=[[0,0,0],[0.25,0,0],[0.5,0,0],[0.75,0,0],[1,0,0],[0,1,0],[0.25,1,0],[0.5,1,0],[0.75,1,0],[1,1,0],[0,0.25,0],[0,0.5,0],[0,0.75,0],[1,0.25,0],[1,0.5,0],[1,0.75,0]];outlineConnect=0;fontColor=#232F3E;fillColor=#8C4FFF;strokeColor=#ffffff;dashed=0;verticalLabelPosition=bottom;verticalAlign=top;align=center;html=1;fontSize=12;fontStyle=0;aspect=fixed;shape=mxgraph.aws4.resourceIcon;resIcon=mxgraph.aws4.api_gateway;" vertex="1" parent="sandKhznGmmFXWI2i4uB-1">
          <mxGeometry x="26" y="91" width="78" height="78" as="geometry" />
        </mxCell>
        <mxCell id="sandKhznGmmFXWI2i4uB-22" style="edgeStyle=orthogonalEdgeStyle;rounded=0;orthogonalLoop=1;jettySize=auto;html=1;entryX=0;entryY=0.5;entryDx=0;entryDy=0;" edge="1" parent="sandKhznGmmFXWI2i4uB-1" source="sandKhznGmmFXWI2i4uB-4" target="sandKhznGmmFXWI2i4uB-18">
          <mxGeometry relative="1" as="geometry" />
        </mxCell>
        <mxCell id="sandKhznGmmFXWI2i4uB-23" style="edgeStyle=orthogonalEdgeStyle;rounded=0;orthogonalLoop=1;jettySize=auto;html=1;entryX=0;entryY=0.5;entryDx=0;entryDy=0;strokeWidth=2;" edge="1" parent="sandKhznGmmFXWI2i4uB-1" source="sandKhznGmmFXWI2i4uB-4" target="sandKhznGmmFXWI2i4uB-11">
          <mxGeometry relative="1" as="geometry">
            <Array as="points">
              <mxPoint x="346" y="130" />
              <mxPoint x="346" y="168" />
            </Array>
          </mxGeometry>
        </mxCell>
        <mxCell id="sandKhznGmmFXWI2i4uB-4" value="&lt;font style=&quot;font-size: 14px;&quot;&gt;Lambda&lt;/font&gt;" style="sketch=0;points=[[0,0,0],[0.25,0,0],[0.5,0,0],[0.75,0,0],[1,0,0],[0,1,0],[0.25,1,0],[0.5,1,0],[0.75,1,0],[1,1,0],[0,0.25,0],[0,0.5,0],[0,0.75,0],[1,0.25,0],[1,0.5,0],[1,0.75,0]];outlineConnect=0;fontColor=#232F3E;fillColor=#ED7100;strokeColor=#ffffff;dashed=0;verticalLabelPosition=bottom;verticalAlign=top;align=center;html=1;fontSize=12;fontStyle=0;aspect=fixed;shape=mxgraph.aws4.resourceIcon;resIcon=mxgraph.aws4.lambda;" vertex="1" parent="sandKhznGmmFXWI2i4uB-1">
          <mxGeometry x="206" y="91" width="78" height="78" as="geometry" />
        </mxCell>
        <mxCell id="sandKhznGmmFXWI2i4uB-6" value="" style="shape=image;verticalLabelPosition=bottom;labelBackgroundColor=default;verticalAlign=top;aspect=fixed;imageAspect=0;image=data:image/png,iVBORw0KGgoAAAANSUhEUgAAAXkAAACGCAMAAAAPbgp3AAAAmVBMVEX////qKEXqJUPpADHpGz3qJELpAC/pGDvqIEDpAC7pETjpADPpFjrpCjXpDjf/+/z97vD84uXqLkr+9vfzlJ/xg5D4xMryjZn2s7v73OD3usH0n6n5zdLweIbtUGX1pK3vZ3j61NnwcYDuW27vaHnrN1HtWGvsRlz2rrb73uH3uL/0maTyiJTtTGHsQFjxfozoACXoAB7nABScnQ3oAAARo0lEQVR4nO1daXuyMBaVECAsARTFXXBBbd068/9/3IgIJJBIsFinbzmf+miF5HC5uWvS6bT4J+C8ewB/FIMeiDb+u0fxF+EsIEDywn33OP4gPAQkCaJu/Pfi0n33cP4S9oYkSUjyrn9Gln7x3j2evwPPujIvGYdOx5UlSbMm7x7Q38FJiYV+3ekE8TMA8qq1dn4Ia3QlXJ8mGv8KrTd+95D+CLZIAlfiO2soJVDU1sz8CTgSQHDZ6YSWlALoy3eP6i/gE8Od15lJUMoB7Na8fD0ieOp0ViqQSKDdu4f172OmIrdzsqQCjOG7B/bP46jvO6sS8ZJktvrmxQg1Z6aWiZdg+O6R/etYrzsbxGBe0luh/w4cdzk5DFbbXdSTetF5u7pMJ0sqMDkYdgBgMQ8H7xr0r4fr99c91bQtiJACYigIQcs25Sg8zNLImH9wTRbxErDeOvpfC2+6w1hDTGm+uk4atk792e0/gzhQxoI5e/McfiPcgWUobD4zIM3s9a+63HMN9j9o/XdP49fBnauQLexF2dfUxaTTObMfEtq+eyK/DM5Qh0wm2fRiYzhn2jYSkN49ld+FWY/hFj0EZBN//aLNT9XAQa3S7+Iw2ry4OOZsC/E54NaXEsbGbpB4qQ0VC2PDsQ+fhJZqm1bfV+CCGyUeoPTCo/07p/X/j0GzxEtKlh0J/tMmZh9g3jDxRMhsoLUqnwtvUdeMr4Sd1TydFKXX6no2JhrPHXoeekq2q11fgPVb5/f/io+1LBSnqQWUce3HegxP3znDH8VsGgRC/+iHavMCL0lytqqubpdX/0rlmYcM66vSfXc/5z38Ct4lJcruYRQ++MdxvK6Y+GFuYjncRrYtFg+uj7zCr68ln/yRQpBunCiyH1RUuyeVl3JqArmWzxMnf0Pf7NBj5pev0TEpQB4tW2XRfnT6kam/F9ObW8Rnvmu/TtxjyJ/pnXyiGAePfmb2b8Q4SUpjrtO+fanESzhT6a5FPGIgPe1PBYPwN0QgvJ7ymPkZp1ygKeIv2Z121CO2nk2KH3So/oI2IOd0V61c5lc1Mq31oeY1TmuN/sp+Lk21v0oKboh5z3lZN5GzSHnFvAaC3gu1PDKzmLC3KBAvacdnZrSP1wpajMb7wTqSpCg8ToQfpucPt5YeQ4s2Q7HfdUeDrWTJNpTO2/lwNHukLru9TKDND84QXqdsAN5lN+1G5VdLfkLo+7fhEszPLkA1YFz4piCI9bXQCjAJVZxFpxSkYT3qV0RQ3eCsX+9zE9P4VpqB9fPA57wzgZynsHmJUFd/Ee8KlvIkyN5mJNO12u6Uu0jC1ynzThDJtPuH5F1ld9AkMhPWr/ylxRKKpq4eCII3NBjlXgrEiNVwPduRUfaUecfxXOpB9ZorMCAIsNRzzvvyxI732/W0rDtM5fTukO8lxgNF8uMH6m7N5EeauR30B1s51YLQ5qbLZkoSNwfQxiY2iIcNYCksswxlypRQFuF6sTtHPQmYVPRs1LjQI6xuD7mP6m9Njt1qiIXx7pcJsZbO2IzlunvC7CUKPypo29vJYBS9n1DmDtMgITBX7N+Mkv4jRe4NJ7PlbHTRiDsXTJfZVi7OVkEIKbc6YEjf4NiwpgfzPETk+UfE95CBaOBsHISYvEzMfKDfKYSaVcgoaHwHeXWfLIxyLeFmmSBrx1o1J4lsWlE+r08psxcsKuR9LvFOAi3oK+8bjgwjDNbzY/94CSMdP4zCPQ7jpRNfG7JFj/DKfHirBlIsHK0O0/7aohZwa8651voeOIILStFtUupRr6zsPxIBty/Up1nCFJKfe+z+gYyZYk5oeWrYjQUIXhcvWBmFQ5zXm0K/vEhYo10sc4oZBXfRdem6LE7/8/bOsBIVZHuREoCK36QOINxwhkVFoDyNMWWQIB532ZCWXhu64UITMCz7anlwMF4k8Y7kNyCVZvG1TpB1z5nFSGk3e7qlVOU++apcnnhMSsFAj/zwrGPbskxyxAroXVfX60sjG6DsAb7WkeXDFoibdfsRS3kiXDBFLqSrxurMyl4eWFZGl4wAXFj2kxeXVYa+TkZFS48Tg3RPs/faYTrMS1ZL3w+gpPjYWG7kovlon4pC6JAvrlF+pH5mxOnlN22ZvTGAjmr4iRZjdXp5SZBXZjxkgnnGY6Ywb7zQQwxY0I9dRrTYs4z2KTGHMlNeZgky2yiijCuN+ukweZMgK9QxKTrUGWow31k0W0cpCvuzYlwZcVR8yWA5PV1C05dfpjDTJxbrx/Nc31JCv0teNnYm5xZgZ42lDvOdeZ32kMYARaybGwJCojVm2YhDzJde9zqkOpFkViZyn0se5eCld2XGem+5D1YPWC3mO8sVkDJVebULNesKDaJXRBdyhlDluO6YEcalwX5TFoRGkgvfES3SKuu3fn555Zx/7KYfA8TSi/GbwqKWZP5S/rp8HYR2158otqz3wkF/GgRB/7g6y7INX0Y/UwBZcAkjgLF+xiAtNJ22y928G6D0OtzQJfwBYgXOmJeQxFhJXV2WvxhLTl3mN7DnG9dHPilElLuTY4St1yQNmRqbBUeu/FGfsCtVWkSDXJmA6Di44hhjOBweB/NwByBpGBGaJTf0JaAPy7EFd7lk2Yq1mf9aTmyOFHaDk/mKhUBc0RNP3mKXB5JLgUxLD6mIACwAKYByJa1D9juXdKA1c+WLZY9J5kV2HlgdrguNzQ2yji9W87Yn+91ngDTXOcyPCPuMdlM5uwJwQIopHQGBGJ8Gk+oy9LrMe3GW89EOTG7fblzuddEaBJJ5dnh5QrR2mVSCxCdFF8oJbNuwDFWVZYyxcbUlYumPoUDC4C959wq0zehSkT+sy/wVo4oUnTvXG15sTdEd5kjm2Xqe5Je+7AOT1OuOZ74/Cg7DwWW+Ctfbxem8YF8zA4DYWI8eiAzJvGC62a30KZfnZn0uYV+KYJ6zwpKGJ53xHxCSyzGMeLA4wURkq3Ou2nmCeREMG62w1w7Vd7yhmvklyTwV+ic3PBK2phIc+IIGdV7ulmS+yeLdGWrQwhTw8Uqz4ej5JbGO0swvqg0jHpxHiWpYjGyWx9oo8x2XUcPxLIS3AcljWrz3ZMxlntyCpO4GU4+L8Mywyp5vtmDd2TZmXwonYwn2ONvljAmOaD1PhttQWHOy+4c1AtqOQf3rmO901k1RLxy5OeXMc2bzwWWedJSEPYgMnw/tOch4aYn71a8qqkKxTPJpQMEbErqaozBIbUNblZQ/JOxB5BeOOAUmNzAa7l7KfKE0+HlogvVOa4J5diyEzzwV3BeqeCggAJibzwflHC14KfMVFQ7izAuKIMk82x5acpmniiue4sKZrFCx+CSFVVzwHfRS5ptK3orKPNFhwQmzkczTcb85tTv4k1t7OcvpVsZaWeeXjIRXM98JGtke4RnmOTJPjIdmfk+5Q/LzW+I7s+G5XL6lFpxZj3jQr9m2sJFGn2dWWLZHTkYP6CjxmLLJxSPTHVY8xZtcJEw5NMUmNJewPl7DPG97yjoAQPBmp0rmKZmnxTCipFR8c/Ctrn6xGlSWK7LOs6joX898Z/p96oX7wauZJ22bAvMXSkYFy3yuCNFVNJgmwAdRrVHU5aREvmqT1O/3+gizcKq050lPqsD8jE6NFOvTuDhCZjXkDZfMmXwH86NvL7LCYZRq5smCm+KiF9EmiWhW4FY9VbxWiiyeUdI2JPOv2mjg20IvHCU+Vdo2FPOFhXFPiwiwedR71OvwGae52PWx1y9TgksrLFnt1mB8nsL+u5peuMOSiNtwqr/Jyo0i80URAZyeWl9R14ReTxZtmZ29ybRbcRcH0p4XqlR/Bs531Y3MaVosgWQ+ZP7HQ+YnRb9PHZQdCTc+GAgSB78lVR8AMjMg6TtWDvoRj5msm2oWg2+G6nXRGxFRYk5M/yHz+bluKazenuZ+PDBu/6PmCsJJkupsfZP6D+XO3pAwOfOi3Y/aez04y0+fawEvKSeldixHET5tKqqUI1LPlwOSrlEcG7CVSxo982b98909ksn1+z4hq9gyEiM1VcsrMFnWnD2XT1sXXdPuYxrYpo3NHi/CRypQEK1qurXCC5BDJgQwM+JAxm0YoWC/nOEAEKNwvV6cgZEFZFTKGEnddCMsXa97v55Wjpx+kKrNGMWj7W5MIOl1pH6sJQ6ZwlMLpLpBYVAzbM/fg6Q4DvLdYudSP4nVntVPsGeF+MCtxCaTHqDSmdVsdtap8Cydu6GqsHYtoU5AMHQpsm5tgLiGcd8102vwKnHIihTt4NfcSFoVjBF36dMc8IZRg0jEkdkOzLQyuoqMgiTkegMplMC6u+SZAKZr4NN3uussrc5+kb10NsAofefu4zJDsvTQnI3r7Z0ukv92lvv5ziwEZ5F8CnKxdtzxZEin5S0pnPrdglYaVWypj3dF8SLkCuAoyL4eKQkxgNOGuGFkS61Tjab33AGhfbHbJYY6jjOiuTQCSK1yD5C+3Zz6DRJDIBusKnJkfaVyf+4Zcmn/u/jUH7W4FI8fHSMB5fIK6H4Rz1Ox7MXh0/f3g949PYh4CS5nV1S7QK1l2eesUmbaLBY3z47fhMjJF1W4osrcHyD9DUsdF6BwxTSdtadzLapyVJJ7dArUNyx92t3oFjECpNk42/lAkRfcmjwnpArCgAFrbcpDaBIqjD6I53y8PVW4yBdV0+94Isyj9f03PL+cBLQsyzCu88VmgutfthXXn36lbchfEGqWEW8GcYWlQS3eGMK2rv/ECLm4F2wXDTCAsM2t1XOnkcl46xQonx+aB58ShvHSDUB86lOdPR46VNwVk5/HrvfH3aiC63RQcVZMSObh8O6EiPTDHvrTYD+a+LPlcjz++PhYLmezSTCcz+epNeeFq8EhGPnjrnuF53Q8tzv2P4PpccWUSW+/1rCVFA4nR8FJm8+HK313NI80GRvpj6CF7ehYGXXz52cANdTbHmpnwYgsD1nAMvkasY6Oilu7hPS87Sf/Bt525I43Cwab7eK02Ibz6aS4EDPhdv3RdLBZLxbbzSDwBdtJvasoPDNAwjchFUOER51NyXAHyKFj5FzornN7YdqTHLkg2oQIB3qPjcm8HKO0Y1U2E4igxc7/7bm1R/Zy4ZD8avdtyW77TpYNBOVWNScSNY4jBrEDWLvC8S+Bqi5AahirtzU7NKPfbLyjQOhSniUX/hubEz+JgggjrCKFU2iV6OxddTPPrdJog1qRfwiPEd9j0okSb9ETUTbxM5rD9ozqx5iLJT7AfZcXkQX2VuI1h1pr2DwE75TjAvFpwZyAmk/SGnPYHp9ZgamAFOcBO4FShMRvnddKEvxNbCvFWJHTgB2zezR5ONkf6OYwbtpTkivhVbWjIZRZhyEvFwjOvftf96qgRbu8VsPhGPB34Dwq1eWmRYx9tkVPot5/wQ7yb8d4P3jAPNKJtBt3C0B48e/mplEv/f6H4f9HN/jaRjFPhNYY89oXgZZWSADlfVP5bRiHJm+HW4TPlNLgbvV6NX3uRg+nTq4FEx8XYJZTMsiSC9vs73la3rp0uknCRLjhu0UCZ3aMVCPbZzg+pUA+HQrWicuzKOPAwn2bk/Yg9ifQ3V8WPTU+mcOONn1GSobXHwusbqqI/tAhmY3D8Xg+P3eX19i/Tc7UaHXNK9BPlXyxplWNOwFulVrAeu4coxaPML0H1hCOFhT18s3cv9UB6090vbeoQHLYEDJwOHGpBshk5+Zb7FiuWXHSQgAXM66HlsO9WzDq71tmx+EcLLJjZotacHc61qNhsokmtdCqSaggrmCwwncO8d/EpDcPspPc+oQ3BdR7m90cSlZ73v1rsSe3gDfuK2rXZHVctGgSJPFGVoq+gpjVZdSiORDEg/x40qWqvqoZt0UCohdGQ7ntfv5qzcnXYpBJPFIJCzLQn9/Hp4UAnHUaqlTMBVG11120xR0vxThNkysm3UjxG85K/80I8P3wH3XXprZ/EG6iaRRLD9ug2E8iwEgCyJKJbtEWP4BZZELLhIugTfT9KGan/8LzKli2BswPw9/7z7W+tWjR4o/hfzuFF6Uf3bUqAAAAAElFTkSuQmCC;" vertex="1" parent="sandKhznGmmFXWI2i4uB-1">
          <mxGeometry x="397.21000000000004" y="80" width="81.59" height="29" as="geometry" />
        </mxCell>
        <mxCell id="sandKhznGmmFXWI2i4uB-24" style="edgeStyle=orthogonalEdgeStyle;rounded=0;orthogonalLoop=1;jettySize=auto;html=1;entryX=0.5;entryY=1;entryDx=0;entryDy=0;strokeWidth=2;" edge="1" parent="sandKhznGmmFXWI2i4uB-1" source="sandKhznGmmFXWI2i4uB-11" target="sandKhznGmmFXWI2i4uB-6">
          <mxGeometry relative="1" as="geometry" />
        </mxCell>
        <mxCell id="sandKhznGmmFXWI2i4uB-11" value="&lt;font style=&quot;font-size: 13px;&quot;&gt;codegenie/serverless-express&lt;/font&gt;" style="html=1;rounded=1;absoluteArcSize=1;arcSize=106;whiteSpace=wrap;fontSize=11;fillColor=#ffe6cc;strokeColor=#000000;strokeWidth=2;" vertex="1" parent="sandKhznGmmFXWI2i4uB-1">
          <mxGeometry x="368.09" y="150" width="139.83" height="35" as="geometry" />
        </mxCell>
        <mxCell id="sandKhznGmmFXWI2i4uB-19" value="AWS Lambda Container" style="text;html=1;align=center;verticalAlign=middle;resizable=0;points=[];autosize=1;strokeColor=none;fillColor=none;" vertex="1" parent="sandKhznGmmFXWI2i4uB-1">
          <mxGeometry x="325.99999999999994" y="50" width="150" height="30" as="geometry" />
        </mxCell>
        <mxCell id="sandKhznGmmFXWI2i4uB-27" value="&lt;font style=&quot;color: rgb(255, 255, 255);&quot;&gt;&lt;b&gt;2&lt;/b&gt;&lt;/font&gt;" style="ellipse;whiteSpace=wrap;html=1;fillColor=#000000;strokeColor=#000000;fontColor=#000000;" vertex="1" parent="sandKhznGmmFXWI2i4uB-1">
          <mxGeometry x="146" y="100.5" width="20" height="20" as="geometry" />
        </mxCell>
        <mxCell id="sandKhznGmmFXWI2i4uB-28" value="&lt;font style=&quot;color: rgb(255, 255, 255);&quot;&gt;&lt;b&gt;3&lt;/b&gt;&lt;/font&gt;" style="ellipse;whiteSpace=wrap;html=1;fillColor=#000000;strokeColor=#000000;fontColor=#000000;" vertex="1" parent="sandKhznGmmFXWI2i4uB-1">
          <mxGeometry x="295" y="98" width="20" height="20" as="geometry" />
        </mxCell>
        <mxCell id="sandKhznGmmFXWI2i4uB-29" value="&lt;font style=&quot;color: rgb(255, 255, 255);&quot;&gt;&lt;b&gt;4&lt;/b&gt;&lt;/font&gt;" style="ellipse;whiteSpace=wrap;html=1;fillColor=#000000;strokeColor=#000000;fontColor=#000000;" vertex="1" parent="sandKhznGmmFXWI2i4uB-1">
          <mxGeometry x="348.09" y="118" width="20" height="20" as="geometry" />
        </mxCell>
        <mxCell id="sandKhznGmmFXWI2i4uB-30" value="&lt;font style=&quot;color: rgb(255, 255, 255);&quot;&gt;&lt;b&gt;5&lt;/b&gt;&lt;/font&gt;" style="ellipse;whiteSpace=wrap;html=1;fillColor=#000000;strokeColor=#000000;fontColor=#000000;" vertex="1" parent="sandKhznGmmFXWI2i4uB-1">
          <mxGeometry x="444" y="120" width="20" height="20" as="geometry" />
        </mxCell>
        <mxCell id="sandKhznGmmFXWI2i4uB-7" value="" style="points=[];aspect=fixed;html=1;align=center;shadow=0;dashed=0;fillColor=#FF6A00;strokeColor=none;shape=mxgraph.alibaba_cloud.user;" vertex="1" parent="1">
          <mxGeometry x="50" y="190" width="60" height="60" as="geometry" />
        </mxCell>
        <mxCell id="sandKhznGmmFXWI2i4uB-8" style="edgeStyle=orthogonalEdgeStyle;rounded=0;orthogonalLoop=1;jettySize=auto;html=1;entryX=0;entryY=0.5;entryDx=0;entryDy=0;entryPerimeter=0;strokeWidth=2;" edge="1" parent="1" source="sandKhznGmmFXWI2i4uB-7" target="sandKhznGmmFXWI2i4uB-3">
          <mxGeometry relative="1" as="geometry" />
        </mxCell>
        <mxCell id="sandKhznGmmFXWI2i4uB-26" value="&lt;font style=&quot;color: rgb(255, 255, 255);&quot;&gt;&lt;b&gt;1&lt;/b&gt;&lt;/font&gt;" style="ellipse;whiteSpace=wrap;html=1;fillColor=#000000;strokeColor=#000000;fontColor=#000000;" vertex="1" parent="1">
          <mxGeometry x="124" y="190" width="20" height="20" as="geometry" />
        </mxCell>
      </root>
    </mxGraphModel>
  </diagram>
</mxfile>
